<?xml version="1.0" encoding="UTF-8"?>
<!DOCTYPE svg PUBLIC "-//W3C//DTD SVG 1.1//EN" "http://www.w3.org/Graphics/SVG/1.1/DTD/svg11.dtd">
<svg xmlns="http://www.w3.org/2000/svg" version="1.1" width="600px" height="374px" style="shape-rendering:geometricPrecision; text-rendering:geometricPrecision; image-rendering:optimizeQuality; fill-rule:evenodd; clip-rule:evenodd" xmlns:xlink="http://www.w3.org/1999/xlink">
<g><path style="opacity:0.996" fill="#50767c" d="M 336.5,194.5 C 325.32,205.345 312.987,214.679 299.5,222.5C 285.736,214.622 273.07,205.289 261.5,194.5C 252.004,184.823 245.171,173.49 241,160.5C 238.466,139.713 246.966,125.88 266.5,119C 276.331,117.081 285.331,118.914 293.5,124.5C 295.253,113.872 296.419,103.205 297,92.5C 294.294,90.1294 291.961,87.4628 290,84.5C 277.496,87.9144 268.829,83.5811 264,71.5C 262.281,66.8797 261.781,62.213 262.5,57.5C 270.546,62.5232 278.879,67.0232 287.5,71C 289.986,74.1371 291.819,77.6371 293,81.5C 294.667,83.1667 296.333,84.8333 298,86.5C 297.904,78.482 297.237,70.482 296,62.5C 294.833,61.3333 293.667,60.1667 292.5,59C 276.629,58.961 268.629,51.1277 268.5,35.5C 274.934,37.367 281.268,39.5336 287.5,42C 292.593,45.9634 295.427,51.1301 296,57.5C 296.152,49.0741 296.985,40.7408 298.5,32.5C 290.289,27.2097 288.455,20.2097 293,11.5C 295.647,7.68646 298.813,4.35313 302.5,1.5C 304.62,7.64492 306.287,13.9783 307.5,20.5C 307.663,25.1826 305.83,28.8493 302,31.5C 300.672,36.4424 300.339,41.4424 301,46.5C 302.924,44.1779 304.257,41.5112 305,38.5C 306.5,36.3333 308.333,34.5 310.5,33C 316.765,29.5516 323.098,27.8849 329.5,28C 326.191,40.9777 317.858,47.6443 304.5,48C 303.696,49.7713 302.529,51.2713 301,52.5C 300.231,58.9337 300.731,65.267 302.5,71.5C 305.056,66.2393 308.389,61.406 312.5,57C 320.082,52.5245 328.082,50.0245 336.5,49.5C 332.762,65.4115 322.762,73.2448 306.5,73C 305.333,74.1667 304.167,75.3333 303,76.5C 302.333,83.1667 302.333,89.8333 303,96.5C 305.035,93.7552 306.701,90.7552 308,87.5C 314.497,82.1638 321.997,79.8305 330.5,80.5C 333.5,80.6667 336.5,80.8333 339.5,81C 340.308,81.3076 340.975,81.8076 341.5,82.5C 336.145,89.6968 329.479,95.1968 321.5,99C 317.11,99.7722 312.777,99.6055 308.5,98.5C 303.127,101.604 300.794,106.271 301.5,112.5C 301.608,116.924 302.275,121.257 303.5,125.5C 321.316,114.519 337.482,116.519 352,131.5C 358.873,142.508 360.207,154.175 356,166.5C 351.215,177.085 344.715,186.418 336.5,194.5 Z"/></g>
<g><path style="opacity:1" fill="#cbd7cf" d="M 318.5,131.5 C 322.182,131.335 325.848,131.501 329.5,132C 318.313,134.845 310.48,141.679 306,152.5C 305.303,156.535 305.47,160.535 306.5,164.5C 305.079,168.276 303.245,168.276 301,164.5C 298.883,149.154 304.717,138.154 318.5,131.5 Z"/></g>
<g><path style="opacity:0.035" fill="#000000" d="M 261.5,194.5 C 273.07,205.289 285.736,214.622 299.5,222.5C 312.987,214.679 325.32,205.345 336.5,194.5C 373.483,195.017 410.149,198.683 446.5,205.5C 457.765,207.921 468.431,211.921 478.5,217.5C 480.652,220.952 480.986,224.619 479.5,228.5C 472.229,232.969 464.562,236.635 456.5,239.5C 424.289,247.277 391.623,251.943 358.5,253.5C 319.167,254.833 279.833,254.833 240.5,253.5C 209.49,252.118 178.824,248.118 148.5,241.5C 137.893,239.083 128.226,234.75 119.5,228.5C 118.752,226.668 117.752,225.001 116.5,223.5C 117.833,221.5 119.167,219.5 120.5,217.5C 130.329,211.251 140.996,207.251 152.5,205.5C 188.523,198.757 224.856,195.09 261.5,194.5 Z"/></g>
</svg>
